<svg width="512" height="212" viewBox="0 0 512 212" fill="none" xmlns="http://www.w3.org/2000/svg">
<path fill-rule="evenodd" clip-rule="evenodd" d="M2.09473e-06 27.3403L0 203L175.66 203L175.66 175.66L203 175.66L203 0.000216044L27.3397 0.000213949L27.3397 27.3403L2.09473e-06 27.3403ZM27.3397 27.3403L27.3397 175.66L175.66 175.66L175.66 27.3403L27.3397 27.3403Z" fill="white"/>
<path d="M122.433 68.3198C129.868 66.3274 136.672 73.1316 134.68 80.5673L120.015 135.299C118.022 142.735 108.728 145.225 103.284 139.782L63.218 99.7154C57.7747 94.2721 60.2652 84.9775 67.7009 82.9851L122.433 68.3198Z" fill="#62FF96"/>
<path d="M490.934 176.078C487.164 176.078 483.716 175.127 480.591 173.224C477.5 171.322 475.037 168.774 473.203 165.581C471.402 162.354 470.502 158.77 470.502 154.83L470.604 122.27C470.604 118.398 471.487 114.899 473.253 111.774C475.02 108.615 477.449 106.084 480.54 104.182C483.665 102.245 487.13 101.277 490.934 101.277C494.807 101.277 498.255 102.211 501.278 104.08C504.335 105.948 506.764 108.479 508.565 111.672C510.399 114.831 511.316 118.364 511.316 122.27V127.06C511.316 127.332 511.18 127.468 510.908 127.468H499.189C498.917 127.468 498.781 127.332 498.781 127.06V122.27C498.781 119.96 498.034 117.973 496.539 116.309C495.045 114.644 493.176 113.812 490.934 113.812C488.455 113.812 486.552 114.661 485.228 116.36C483.903 118.058 483.24 120.028 483.24 122.27V154.83C483.24 157.378 483.988 159.467 485.482 161.097C486.977 162.694 488.794 163.492 490.934 163.492C493.176 163.492 495.045 162.609 496.539 160.842C498.034 159.042 498.781 157.038 498.781 154.83V149.989C498.781 149.718 498.917 149.582 499.189 149.582H511.01C511.282 149.582 511.418 149.718 511.418 149.989V154.83C511.418 158.736 510.501 162.303 508.666 165.53C506.798 168.723 504.335 171.288 501.278 173.224C498.221 175.127 494.773 176.078 490.934 176.078Z" fill="white"/>
<path d="M459.19 175.058H447.369C447.029 175.058 446.859 174.889 446.859 174.549L446.961 102.857C446.961 102.585 447.097 102.449 447.369 102.449H459.088C459.36 102.449 459.496 102.585 459.496 102.857L459.598 174.549C459.598 174.889 459.462 175.058 459.19 175.058Z" fill="white"/>
<path d="M393.867 174.549L406.81 102.857C406.878 102.585 407.048 102.449 407.319 102.449H422.453C422.724 102.449 422.894 102.585 422.962 102.857L435.395 174.549C435.429 174.889 435.293 175.058 434.987 175.058H423.421C423.081 175.058 422.894 174.889 422.86 174.549L421.739 166.906H407.523L406.402 174.549C406.368 174.889 406.198 175.058 405.893 175.058H394.275C394.003 175.058 393.867 174.889 393.867 174.549ZM414.3 126.448L409.612 155.747H419.65L415.37 126.448L414.759 122.576L414.3 126.448Z" fill="white"/>
<path d="M362.123 176.078C358.421 176.078 355.007 175.127 351.881 173.224C348.79 171.322 346.31 168.791 344.442 165.632C342.608 162.439 341.691 158.94 341.691 155.136V150.346C341.691 149.972 341.861 149.786 342.2 149.786H353.92C354.191 149.786 354.327 149.972 354.327 150.346V155.136C354.327 157.412 355.092 159.382 356.62 161.046C358.149 162.677 359.983 163.492 362.123 163.492C364.297 163.492 366.149 162.66 367.677 160.995C369.206 159.297 369.97 157.344 369.97 155.136C369.97 152.588 368.306 150.363 364.977 148.461C364.433 148.121 363.72 147.713 362.837 147.238C361.987 146.728 360.968 146.151 359.779 145.505C358.59 144.86 357.435 144.232 356.314 143.62C355.193 142.975 354.106 142.363 353.053 141.786C349.249 139.544 346.412 136.741 344.544 133.378C342.71 129.982 341.793 126.177 341.793 121.965C341.793 118.092 342.744 114.593 344.646 111.468C346.548 108.377 349.028 105.931 352.085 104.131C355.176 102.297 358.522 101.379 362.123 101.379C365.826 101.379 369.223 102.297 372.314 104.131C375.405 105.999 377.868 108.479 379.702 111.57C381.571 114.661 382.505 118.126 382.505 121.965V130.525C382.505 130.797 382.369 130.933 382.097 130.933H370.378C370.106 130.933 369.97 130.797 369.97 130.525L369.868 121.965C369.868 119.519 369.104 117.532 367.575 116.003C366.047 114.475 364.229 113.71 362.123 113.71C359.983 113.71 358.149 114.525 356.62 116.156C355.092 117.787 354.327 119.723 354.327 121.965C354.327 124.241 354.803 126.143 355.754 127.672C356.739 129.2 358.522 130.661 361.104 132.054C361.376 132.19 362.004 132.529 362.989 133.073C363.975 133.616 365.062 134.228 366.25 134.907C367.473 135.552 368.577 136.147 369.562 136.69C370.548 137.2 371.142 137.506 371.346 137.608C374.811 139.544 377.545 141.922 379.549 144.741C381.588 147.561 382.607 151.025 382.607 155.136C382.607 159.11 381.689 162.677 379.855 165.836C377.987 168.995 375.507 171.492 372.416 173.326C369.325 175.161 365.894 176.078 362.123 176.078Z" fill="white"/>
<path d="M310.048 176.078C306.346 176.078 302.932 175.127 299.807 173.224C296.715 171.322 294.219 168.791 292.316 165.632C290.448 162.439 289.514 158.94 289.514 155.136L289.616 122.067C289.616 118.194 290.55 114.712 292.418 111.621C294.253 108.496 296.732 105.999 299.858 104.131C302.983 102.228 306.38 101.277 310.048 101.277C313.853 101.277 317.267 102.211 320.29 104.08C323.347 105.948 325.793 108.462 327.627 111.621C329.496 114.746 330.43 118.228 330.43 122.067L330.532 155.136C330.532 158.94 329.615 162.422 327.78 165.581C325.912 168.774 323.432 171.322 320.341 173.224C317.25 175.127 313.819 176.078 310.048 176.078ZM310.048 163.492C312.154 163.492 313.989 162.643 315.551 160.944C317.114 159.212 317.895 157.276 317.895 155.136L317.793 122.067C317.793 119.757 317.063 117.803 315.602 116.207C314.142 114.61 312.29 113.812 310.048 113.812C307.908 113.812 306.074 114.593 304.545 116.156C303.017 117.718 302.252 119.689 302.252 122.067V155.136C302.252 157.412 303.017 159.382 304.545 161.046C306.074 162.677 307.908 163.492 310.048 163.492Z" fill="white"/>
<path d="M243.044 175.058H231.223C230.951 175.058 230.815 174.889 230.815 174.549L231.019 102.857C231.019 102.585 231.155 102.449 231.427 102.449H244.165C244.437 102.449 244.675 102.585 244.878 102.857L254.407 116.614L263.884 102.857C264.088 102.585 264.343 102.449 264.649 102.449H277.438C277.744 102.449 277.897 102.585 277.897 102.857L278.1 174.549C278.1 174.889 277.965 175.058 277.693 175.058H265.871C265.6 175.058 265.464 174.889 265.464 174.549L265.362 121.302L254.407 137.2L243.554 121.302L243.452 174.549C243.452 174.889 243.316 175.058 243.044 175.058Z" fill="white"/>
<path d="M392.237 73.0997L405.179 1.40763C405.247 1.13588 405.417 1 405.689 1H420.822C421.094 1 421.264 1.13588 421.331 1.40763L433.764 73.0997C433.798 73.4394 433.662 73.6093 433.357 73.6093H421.79C421.45 73.6093 421.264 73.4394 421.23 73.0997L420.109 65.4567H405.892L404.771 73.0997C404.738 73.4394 404.568 73.6093 404.262 73.6093H392.644C392.373 73.6093 392.237 73.4394 392.237 73.0997ZM412.669 24.9993L407.982 54.2978H418.019L413.739 24.9993L413.128 21.1268L412.669 24.9993Z" fill="white"/>
<path d="M368.458 73.6093H355.822C355.516 73.6093 355.346 73.4394 355.312 73.0997L340.892 1.40763C340.824 1.13588 340.96 1 341.3 1H353.121C353.393 1 353.563 1.13588 353.631 1.40763L362.191 49.2024L370.547 1.40763C370.615 1.13588 370.785 1 371.057 1H382.725C383.099 1 383.235 1.13588 383.133 1.40763L368.968 73.0997C368.934 73.4394 368.764 73.6093 368.458 73.6093Z" fill="white"/>
<path d="M323.653 73.6093H289.922C289.65 73.6093 289.514 73.4394 289.514 73.0997L289.616 1.40763C289.616 1.13588 289.752 1 290.023 1H323.551C323.823 1 323.959 1.16985 323.959 1.50954V13.178C323.959 13.4497 323.823 13.5856 323.551 13.5856H302.15V29.8908H323.551C323.823 29.8908 323.959 30.0267 323.959 30.2985L324.061 42.1198C324.061 42.3915 323.925 42.5274 323.653 42.5274H302.15V60.7689H323.653C323.925 60.7689 324.061 60.9387 324.061 61.2784V73.2016C324.061 73.4734 323.925 73.6093 323.653 73.6093Z" fill="white"/>
<path d="M249.209 73.6172L230.509 73.7191C230.17 73.7191 230 73.5492 230 73.2096L230.204 1.51745C230.204 1.24569 230.339 1.10981 230.611 1.10981L250.127 1.00791C253.999 0.905999 257.498 1.7892 260.623 3.65751C263.782 5.52582 266.296 8.05653 268.164 11.2496C270.066 14.4088 271.018 17.9076 271.018 21.7461V51.707C271.018 55.7154 270.05 59.3841 268.113 62.7131C266.143 66.0081 263.527 68.6407 260.266 70.6109C257.005 72.5472 253.32 73.5492 249.209 73.6172ZM250.127 13.4916L242.84 13.5935L242.738 60.8787H249.209C251.791 60.8787 253.965 59.9785 255.731 58.1782C257.498 56.3778 258.381 54.2207 258.381 51.707V21.6442C258.381 19.4362 257.566 17.517 255.935 15.8864C254.305 14.2219 252.369 13.4237 250.127 13.4916Z" fill="white"/>
<path d="M510.724 73.5584H447.401C447.04 73.5584 446.859 73.4618 446.859 73.2685V65.6956C446.859 65.5024 447.04 65.4058 447.401 65.4058H510.724C511.085 65.4058 511.265 65.5024 511.265 65.6956V73.2685C511.265 73.4618 511.085 73.5584 510.724 73.5584Z" fill="#62FF96"/>
<path d="M186.44 204V201.2H190.86C191.26 201.2 191.593 201.1 191.86 200.9C192.127 200.7 192.26 200.373 192.26 199.92C192.26 199.52 192.127 199.227 191.86 199.04C191.607 198.84 191.273 198.74 190.86 198.74H186.44V196.16H190.02C190.473 196.16 190.84 196.067 191.12 195.88C191.413 195.68 191.633 195.427 191.78 195.12C191.94 194.8 192.02 194.453 192.02 194.08C192.02 193.467 191.84 193.053 191.48 192.84C191.133 192.627 190.7 192.52 190.18 192.52H186.44V189.6H190.44C192.16 189.6 193.44 189.947 194.28 190.64C195.133 191.32 195.56 192.32 195.56 193.64C195.56 194.187 195.447 194.727 195.22 195.26C195.007 195.793 194.68 196.273 194.24 196.7C193.813 197.113 193.28 197.44 192.64 197.68L192.48 196.98C193.56 197.06 194.38 197.4 194.94 198C195.513 198.6 195.8 199.333 195.8 200.2C195.8 200.987 195.613 201.667 195.24 202.24C194.88 202.8 194.34 203.233 193.62 203.54C192.913 203.847 192.04 204 191 204H186.44ZM184.52 204V189.6H188.08V204H184.52ZM200.163 204V198.02L195.443 189.82V189.6H199.183L202.743 196.18L201.443 196.2L204.783 189.6H208.483V189.82L203.703 198V204H200.163ZM215.114 204V200.92H218.314C219.048 200.92 219.674 200.8 220.194 200.56C220.714 200.307 221.141 199.96 221.474 199.52C221.808 199.08 222.054 198.573 222.214 198C222.374 197.427 222.454 196.813 222.454 196.16C222.454 195.053 222.161 194.2 221.574 193.6C221.001 192.987 220.054 192.68 218.734 192.68H215.114V189.6H218.734C221.161 189.6 222.988 190.167 224.214 191.3C225.454 192.42 226.074 194.027 226.074 196.12C226.074 197.173 225.921 198.173 225.614 199.12C225.321 200.067 224.854 200.907 224.214 201.64C223.588 202.373 222.774 202.953 221.774 203.38C220.774 203.793 219.561 204 218.134 204H215.114ZM213.194 204V189.6H216.754V204H213.194ZM227.629 204V189.6H231.189V204H227.629ZM229.549 204V200.92H237.389V204H229.549ZM229.549 198.24V195.32H236.189V198.24H229.549ZM229.549 192.68V189.6H237.209V192.68H229.549ZM238.894 203.56C238.948 203.32 238.988 203 239.014 202.6C239.041 202.2 239.061 201.793 239.074 201.38C239.088 200.967 239.094 200.627 239.094 200.36V189.6H242.654V200C242.654 200.4 242.621 200.767 242.554 201.1C242.501 201.42 242.454 201.667 242.414 201.84L242.014 201.12C242.148 201.147 242.294 201.173 242.454 201.2C242.628 201.213 242.808 201.22 242.994 201.22C243.608 201.22 244.094 201.133 244.454 200.96C244.828 200.787 245.108 200.533 245.294 200.2C245.481 199.867 245.614 199.453 245.694 198.96L247.134 189.6H250.674L249.134 199.4C248.988 200.36 248.728 201.153 248.354 201.78C247.994 202.393 247.528 202.88 246.954 203.24C246.394 203.587 245.721 203.833 244.934 203.98C244.161 204.113 243.281 204.18 242.294 204.18C241.734 204.18 241.174 204.147 240.614 204.08C240.054 204.013 239.508 203.92 238.974 203.8L238.894 203.56ZM250.423 204L252.023 194.56C252.196 193.52 252.476 192.667 252.863 192C253.25 191.333 253.73 190.813 254.303 190.44C254.89 190.067 255.576 189.807 256.363 189.66C257.15 189.513 258.03 189.44 259.003 189.44C259.563 189.44 260.17 189.473 260.823 189.54C261.476 189.607 262.07 189.7 262.603 189.82L262.643 190.06C262.59 190.3 262.55 190.62 262.523 191.02C262.51 191.42 262.496 191.827 262.483 192.24C262.483 192.653 262.483 192.993 262.483 193.26V204H258.943V193.62C258.943 193.233 258.956 192.88 258.983 192.56C259.023 192.227 259.07 191.927 259.123 191.66L259.583 192.52C259.436 192.48 259.236 192.453 258.983 192.44C258.743 192.413 258.516 192.4 258.303 192.4C257.676 192.4 257.176 192.487 256.803 192.66C256.43 192.82 256.143 193.067 255.943 193.4C255.756 193.733 255.616 194.16 255.523 194.68L253.983 204H250.423ZM252.983 200.32V197.48H260.583V200.32H252.983ZM264.74 204V189.6H268.3V200.92H273.78V204H264.74ZM274.022 196.8C274.022 195.333 274.309 194.04 274.882 192.92C275.455 191.8 276.289 190.927 277.382 190.3C278.475 189.673 279.802 189.36 281.362 189.36C282.909 189.36 284.229 189.673 285.322 190.3C286.429 190.927 287.269 191.8 287.842 192.92C288.415 194.04 288.702 195.333 288.702 196.8C288.702 198.267 288.415 199.56 287.842 200.68C287.269 201.8 286.429 202.673 285.322 203.3C284.229 203.927 282.909 204.24 281.362 204.24C279.802 204.24 278.475 203.933 277.382 203.32C276.289 202.693 275.455 201.82 274.882 200.7C274.309 199.58 274.022 198.28 274.022 196.8ZM277.642 196.8C277.642 197.667 277.775 198.44 278.042 199.12C278.322 199.787 278.735 200.307 279.282 200.68C279.842 201.053 280.535 201.24 281.362 201.24C282.189 201.24 282.875 201.053 283.422 200.68C283.969 200.307 284.375 199.787 284.642 199.12C284.922 198.44 285.062 197.667 285.062 196.8C285.062 195.933 284.922 195.167 284.642 194.5C284.375 193.82 283.969 193.293 283.422 192.92C282.875 192.547 282.189 192.36 281.362 192.36C280.535 192.36 279.842 192.547 279.282 192.92C278.735 193.293 278.322 193.82 278.042 194.5C277.775 195.167 277.642 195.933 277.642 196.8ZM294.749 199.08H292.189V196.04H294.549C295.203 196.04 295.703 195.907 296.049 195.64C296.409 195.373 296.669 194.987 296.829 194.48L298.549 189.6H302.069V189.82L299.989 195.38C299.749 196.073 299.383 196.7 298.889 197.26C298.396 197.82 297.803 198.267 297.109 198.6C296.416 198.92 295.629 199.08 294.749 199.08ZM290.289 204V189.6H293.829V204H290.289ZM298.109 197.24L302.309 203.78V204H298.509L295.249 198.52L298.109 197.24ZM302.887 204L304.487 194.56C304.66 193.52 304.94 192.667 305.327 192C305.714 191.333 306.194 190.813 306.767 190.44C307.354 190.067 308.04 189.807 308.827 189.66C309.614 189.513 310.494 189.44 311.467 189.44C312.027 189.44 312.634 189.473 313.287 189.54C313.94 189.607 314.534 189.7 315.067 189.82L315.107 190.06C315.054 190.3 315.014 190.62 314.987 191.02C314.974 191.42 314.96 191.827 314.947 192.24C314.947 192.653 314.947 192.993 314.947 193.26V204H311.407V193.62C311.407 193.233 311.42 192.88 311.447 192.56C311.487 192.227 311.534 191.927 311.587 191.66L312.047 192.52C311.9 192.48 311.7 192.453 311.447 192.44C311.207 192.413 310.98 192.4 310.767 192.4C310.14 192.4 309.64 192.487 309.267 192.66C308.894 192.82 308.607 193.067 308.407 193.4C308.22 193.733 308.08 194.16 307.987 194.68L306.447 204H302.887ZM305.447 200.32V197.48H313.047V200.32H305.447Z" fill="white"/>
</svg>
