<svg width="762" height="220" viewBox="0 0 762 220" fill="none" xmlns="http://www.w3.org/2000/svg">
    <path fill-rule="evenodd" clip-rule="evenodd" d="M190.37 0H0V190.37H29.6296V220H220V29.6296H190.37V0ZM190.37 29.6296H29.6296V190.37H190.37V29.6296Z" fill="white"/>
    <path d="M150.817 70.0253L125.207 165.603L55.2396 95.6353L150.817 70.0253Z" fill="#62FF96"/>
    <path d="M744.188 218.5H729.5C729.208 218.5 729.063 218.333 729.063 218L729.188 181.625L712.063 129.938C711.979 129.604 712.104 129.438 712.438 129.438H726.688C727.104 129.438 727.354 129.604 727.438 129.938L736.875 164.375L746.5 129.938C746.583 129.604 746.792 129.438 747.125 129.438H761.5C761.833 129.438 761.958 129.604 761.875 129.938L744.563 181.125L744.688 218C744.688 218.333 744.521 218.5 744.188 218.5Z" fill="#62FF96"/>
    <path d="M670.75 218.5H656.25C655.917 218.5 655.75 218.292 655.75 217.875L656 129.938C656 129.604 656.167 129.438 656.5 129.438H682.375C687 129.438 691.25 130.562 695.125 132.812C699 135.062 702.083 138.083 704.375 141.875C706.708 145.667 707.875 149.958 707.875 154.75C707.875 157.875 707.396 160.708 706.438 163.25C705.479 165.792 704.354 167.938 703.062 169.688C701.812 171.438 700.667 172.729 699.625 173.562C704.25 178.688 706.562 184.708 706.562 191.625L706.688 217.875C706.688 218.292 706.479 218.5 706.062 218.5H691.562C691.229 218.5 691.062 218.375 691.062 218.125V191.625C691.062 188.542 689.979 185.875 687.812 183.625C685.646 181.375 682.979 180.25 679.812 180.25H671.375L671.25 217.875C671.25 218.292 671.083 218.5 670.75 218.5ZM682.375 144.75H671.375V164.875H682.375C685 164.875 687.333 163.896 689.375 161.938C691.458 159.979 692.5 157.583 692.5 154.75C692.5 152.042 691.5 149.708 689.5 147.75C687.5 145.75 685.125 144.75 682.375 144.75Z" fill="#62FF96"/>
    <path d="M620.938 219.75C616.396 219.75 612.208 218.583 608.375 216.25C604.583 213.917 601.521 210.812 599.188 206.938C596.896 203.021 595.75 198.729 595.75 194.062L595.875 153.5C595.875 148.75 597.021 144.479 599.312 140.688C601.562 136.854 604.604 133.792 608.438 131.5C612.271 129.167 616.438 128 620.938 128C625.604 128 629.792 129.146 633.5 131.438C637.25 133.729 640.25 136.812 642.5 140.688C644.792 144.521 645.938 148.792 645.938 153.5L646.062 194.062C646.062 198.729 644.938 203 642.688 206.875C640.396 210.792 637.354 213.917 633.562 216.25C629.771 218.583 625.562 219.75 620.938 219.75ZM620.938 204.312C623.521 204.312 625.771 203.271 627.688 201.188C629.604 199.062 630.562 196.688 630.562 194.062L630.438 153.5C630.438 150.667 629.542 148.271 627.75 146.312C625.958 144.354 623.688 143.375 620.938 143.375C618.312 143.375 616.062 144.333 614.188 146.25C612.312 148.167 611.375 150.583 611.375 153.5V194.062C611.375 196.854 612.312 199.271 614.188 201.312C616.062 203.312 618.312 204.312 620.938 204.312Z" fill="#62FF96"/>
    <path d="M543.5 218.5H529C528.667 218.5 528.5 218.292 528.5 217.875L528.75 129.938C528.75 129.604 528.917 129.438 529.25 129.438H544.875C545.208 129.438 545.5 129.604 545.75 129.938L557.438 146.812L569.062 129.938C569.312 129.604 569.625 129.438 570 129.438H585.688C586.062 129.438 586.25 129.604 586.25 129.938L586.5 217.875C586.5 218.292 586.333 218.5 586 218.5H571.5C571.167 218.5 571 218.292 571 217.875L570.875 152.562L557.438 172.062L544.125 152.562L544 217.875C544 218.292 543.833 218.5 543.5 218.5Z" fill="#62FF96"/>
    <path d="M516.625 218.5H475.25C474.917 218.5 474.75 218.292 474.75 217.875L474.875 129.938C474.875 129.604 475.042 129.438 475.375 129.438H516.5C516.833 129.438 517 129.646 517 130.062V144.375C517 144.708 516.833 144.875 516.5 144.875H490.25V164.875H516.5C516.833 164.875 517 165.042 517 165.375L517.125 179.875C517.125 180.208 516.958 180.375 516.625 180.375H490.25V202.75H516.625C516.958 202.75 517.125 202.958 517.125 203.375V218C517.125 218.333 516.958 218.5 516.625 218.5Z" fill="#62FF96"/>
    <path d="M421 218.5H406.5C406.167 218.5 406 218.292 406 217.875L406.25 129.938C406.25 129.604 406.417 129.438 406.75 129.438H422.375C422.708 129.438 423 129.604 423.25 129.938L434.938 146.812L446.562 129.938C446.812 129.604 447.125 129.438 447.5 129.438H463.188C463.562 129.438 463.75 129.604 463.75 129.938L464 217.875C464 218.292 463.833 218.5 463.5 218.5H449C448.667 218.5 448.5 218.292 448.5 217.875L448.375 152.562L434.938 172.062L421.625 152.562L421.5 217.875C421.5 218.292 421.333 218.5 421 218.5Z" fill="#62FF96"/>
    <path d="M339 217.5H324.625C324.208 217.5 324 217.292 324 216.875L324.25 128.938C324.25 128.604 324.417 128.438 324.75 128.438H365.75C366.167 128.438 366.375 128.604 366.375 128.938V143.375C366.375 143.708 366.208 143.875 365.875 143.875H339.625V163.75H365.875C366.208 163.75 366.375 163.958 366.375 164.375L366.5 178.875C366.5 179.208 366.292 179.375 365.875 179.375H339.625V216.875C339.625 217.292 339.417 217.5 339 217.5Z" fill="white"/>
    <path d="M289.188 218.75C284.646 218.75 280.458 217.583 276.625 215.25C272.833 212.917 269.771 209.812 267.438 205.938C265.146 202.021 264 197.729 264 193.062L264.125 152.5C264.125 147.75 265.271 143.479 267.562 139.688C269.812 135.854 272.854 132.792 276.688 130.5C280.521 128.167 284.688 127 289.188 127C293.854 127 298.042 128.146 301.75 130.438C305.5 132.729 308.5 135.812 310.75 139.688C313.042 143.521 314.188 147.792 314.188 152.5L314.312 193.062C314.312 197.729 313.188 202 310.938 205.875C308.646 209.792 305.604 212.917 301.812 215.25C298.021 217.583 293.812 218.75 289.188 218.75ZM289.188 203.312C291.771 203.312 294.021 202.271 295.938 200.188C297.854 198.062 298.812 195.688 298.812 193.062L298.688 152.5C298.688 149.667 297.792 147.271 296 145.312C294.208 143.354 291.938 142.375 289.188 142.375C286.562 142.375 284.312 143.333 282.438 145.25C280.562 147.167 279.625 149.583 279.625 152.5V193.062C279.625 195.854 280.562 198.271 282.438 200.312C284.312 202.312 286.562 203.312 289.188 203.312Z" fill="white"/>
    <path d="M744.15 89.0625H729.462C729.171 89.0625 729.025 88.8958 729.025 88.5625L729.15 52.1875L712.025 0.5C711.942 0.166667 712.067 0 712.4 0H726.65C727.067 0 727.317 0.166667 727.4 0.5L736.837 34.9375L746.463 0.5C746.546 0.166667 746.754 0 747.088 0H761.463C761.796 0 761.921 0.166667 761.838 0.5L744.525 51.6875L744.65 88.5625C744.65 88.8958 744.483 89.0625 744.15 89.0625Z" fill="white"/>
    <path d="M644 90.5H629.5C629.167 90.5 629 90.2917 629 89.875L629.25 1.9375C629.25 1.60417 629.417 1.4375 629.75 1.4375H655.625C660.25 1.4375 664.5 2.5625 668.375 4.8125C672.25 7.0625 675.333 10.0833 677.625 13.875C679.958 17.6667 681.125 21.9583 681.125 26.75C681.125 29.875 680.646 32.7083 679.688 35.25C678.729 37.7917 677.604 39.9375 676.312 41.6875C675.062 43.4375 673.917 44.7292 672.875 45.5625C677.5 50.6875 679.812 56.7083 679.812 63.625L679.938 89.875C679.938 90.2917 679.729 90.5 679.312 90.5H664.812C664.479 90.5 664.312 90.375 664.312 90.125V63.625C664.312 60.5417 663.229 57.875 661.062 55.625C658.896 53.375 656.229 52.25 653.062 52.25H644.625L644.5 89.875C644.5 90.2917 644.333 90.5 644 90.5ZM655.625 16.75H644.625V36.875H655.625C658.25 36.875 660.583 35.8958 662.625 33.9375C664.708 31.9792 665.75 29.5833 665.75 26.75C665.75 24.0417 664.75 21.7083 662.75 19.75C660.75 17.75 658.375 16.75 655.625 16.75Z" fill="white"/>
    <path d="M547 89.875L562.875 1.9375C562.958 1.60417 563.167 1.4375 563.5 1.4375H582.062C582.396 1.4375 582.604 1.60417 582.688 1.9375L597.938 89.875C597.979 90.2917 597.812 90.5 597.438 90.5H583.25C582.833 90.5 582.604 90.2917 582.562 89.875L581.188 80.5H563.75L562.375 89.875C562.333 90.2917 562.125 90.5 561.75 90.5H547.5C547.167 90.5 547 90.2917 547 89.875ZM572.062 30.875L566.312 66.8125H578.625L573.375 30.875L572.625 26.125L572.062 30.875Z" fill="white"/>
    <path d="M479 90.5H464.5C464.167 90.5 464 90.2917 464 89.875L464.25 1.9375C464.25 1.60417 464.417 1.4375 464.75 1.4375H490.625C495.25 1.4375 499.5 2.5625 503.375 4.8125C507.25 7.0625 510.333 10.0833 512.625 13.875C514.958 17.6667 516.125 21.9583 516.125 26.75C516.125 29.875 515.646 32.7083 514.688 35.25C513.729 37.7917 512.604 39.9375 511.312 41.6875C510.062 43.4375 508.917 44.7292 507.875 45.5625C512.5 50.6875 514.812 56.7083 514.812 63.625L514.938 89.875C514.938 90.2917 514.729 90.5 514.312 90.5H499.812C499.479 90.5 499.312 90.375 499.312 90.125V63.625C499.312 60.5417 498.229 57.875 496.062 55.625C493.896 53.375 491.229 52.25 488.062 52.25H479.625L479.5 89.875C479.5 90.2917 479.333 90.5 479 90.5ZM490.625 16.75H479.625V36.875H490.625C493.25 36.875 495.583 35.8958 497.625 33.9375C499.708 31.9792 500.75 29.5833 500.75 26.75C500.75 24.0417 499.75 21.7083 497.75 19.75C495.75 17.75 493.375 16.75 490.625 16.75Z" fill="white"/>
    <path d="M406.438 90.5H383.5C383.167 90.5 383 90.2917 383 89.875L383.25 1.9375C383.25 1.60417 383.417 1.4375 383.75 1.4375H408.375C413.167 1.4375 417.521 2.60417 421.438 4.9375C425.271 7.27083 428.292 10.375 430.5 14.25C432.708 18.0833 433.812 22.25 433.812 26.75C433.812 30.4167 432.979 33.8333 431.312 37C429.646 40.1667 427.667 42.7292 425.375 44.6875C427.833 47.1458 429.75 50 431.125 53.25C432.5 56.5 433.188 59.9167 433.188 63.5C433.188 68.4583 432 72.9792 429.625 77.0625C427.208 81.1458 423.979 84.4167 419.938 86.875C415.896 89.2917 411.396 90.5 406.438 90.5ZM408.375 16.625H398.625V36.75H408.375C411.333 36.75 413.729 35.7083 415.562 33.625C417.396 31.5 418.312 29.2083 418.312 26.75C418.312 24.0417 417.333 21.6875 415.375 19.6875C413.417 17.6458 411.083 16.625 408.375 16.625ZM406.438 52.25H398.625L398.5 74.875H406.438C409.521 74.875 412.167 73.75 414.375 71.5C416.583 69.25 417.688 66.5833 417.688 63.5C417.688 60.4167 416.583 57.7708 414.375 55.5625C412.167 53.3542 409.521 52.25 406.438 52.25Z" fill="white"/>
    <path d="M352.125 90.5H337.625C337.208 90.5 337 90.2917 337 89.875L337.125 1.9375C337.125 1.60417 337.292 1.4375 337.625 1.4375H352C352.333 1.4375 352.5 1.60417 352.5 1.9375L352.625 89.875C352.625 90.2917 352.458 90.5 352.125 90.5Z" fill="white"/>
    <path d="M305.875 90.5H264.5C264.167 90.5 264 90.2917 264 89.875L264.125 2.0625C264.125 1.64583 264.333 1.4375 264.75 1.4375H279C279.417 1.4375 279.625 1.64583 279.625 2.0625L279.5 74.75H305.875C306.292 74.75 306.5 74.9583 306.5 75.375V89.875C306.5 90.2917 306.292 90.5 305.875 90.5Z" fill="white"/>
</svg>
